<svg width="43" height="55" viewBox="0 0 43 55" fill="none" xmlns="http://www.w3.org/2000/svg">
<path fill-rule="evenodd" clip-rule="evenodd" d="M1 0C0.447715 0 0 0.447715 0 1V33.6154V54C0 54.5523 0.447715 55 1 55H21H42C42.5523 55 43 54.5523 43 54V1C43 0.447715 42.5523 0 42 0H1ZM2 32.6154V2H41V53H22V43.2981C22 42.8026 21.6372 42.3819 21.1472 42.309C20.2011 42.1682 19.3211 42.015 18.4963 41.8447L20.2537 39.5464C20.3489 39.5454 20.4412 39.5424 20.5314 39.5386C20.6485 39.5337 20.754 39.5278 20.8552 39.5223L20.856 39.5222C21.0659 39.5106 21.2581 39.5 21.5 39.5C30.8888 39.5 38.5 31.8888 38.5 22.5C38.5 13.1112 30.8888 5.5 21.5 5.5C12.1112 5.5 4.5 13.1112 4.5 22.5C4.5 28.6164 7.73039 33.9769 12.5742 36.9708L10.4612 38.5893C8.58729 37.2607 6.81696 35.4743 4.77336 32.9814C4.58342 32.7497 4.2996 32.6154 4 32.6154H2ZM14.2897 35.6568L23.9207 28.2798C25.7749 26.8596 28.1444 29.227 26.7257 31.0824L21.8211 37.4966C29.9571 37.3258 36.5 30.677 36.5 22.5C36.5 14.2157 29.7843 7.5 21.5 7.5C13.2157 7.5 6.5 14.2157 6.5 22.5C6.5 28.1693 9.64484 33.1056 14.2897 35.6568ZM20 44.1541V53H2V34.6154H3.5289C5.34712 36.8007 7.02684 38.5155 8.82158 39.8678L8.38144 40.2143C8.3504 40.2387 8.32083 40.265 8.29289 40.2929C7.26478 41.321 6.71946 42.3827 6.86172 43.5473C6.99292 44.6213 7.69322 45.5177 8.39036 46.2801C8.68832 46.6059 9.04183 46.9111 9.45605 47.1521C10.2173 47.595 11.1331 47.9604 12.1875 47.8279C13.2452 47.695 14.2432 47.0874 15.2343 46.0154C15.2521 45.9961 15.2691 45.9762 15.2854 45.9556L17.1457 43.5954C18.0408 43.8048 18.9887 43.9887 20 44.1541ZM15.9683 41.8583L25.1369 29.8676L11.1096 40.6119L9.66675 41.7478C8.89011 42.5376 8.81103 43.0106 8.84696 43.3048C8.89456 43.6944 9.17963 44.1795 9.86632 44.9304C10.0542 45.1359 10.2537 45.3023 10.4618 45.4234C11.0524 45.767 11.509 45.8975 11.9381 45.8435C12.3594 45.7906 12.9477 45.5343 13.7397 44.6857L15.9683 41.8583ZM25 52L35.5 52C36.0523 52 36.5 51.5523 36.5 51C36.5 50.4477 36.0523 50 35.5 50L25 50C24.4477 50 24 50.4477 24 51C24 51.5523 24.4477 52 25 52ZM4 5C4.55228 5 5 4.55228 5 4C5 3.44772 4.55228 3 4 3C3.44772 3 3 3.44772 3 4C3 4.55228 3.44772 5 4 5ZM39 5C39.5523 5 40 4.55228 40 4C40 3.44772 39.5523 3 39 3C38.4477 3 38 3.44772 38 4C38 4.55228 38.4477 5 39 5ZM40 51C40 51.5523 39.5523 52 39 52C38.4477 52 38 51.5523 38 51C38 50.4477 38.4477 50 39 50C39.5523 50 40 50.4477 40 51ZM4 52C4.55228 52 5 51.5523 5 51C5 50.4477 4.55228 50 4 50C3.44772 50 3 50.4477 3 51C3 51.5523 3.44772 52 4 52ZM24.5 22.5C24.5 24.1569 23.1569 25.5 21.5 25.5C19.8431 25.5 18.5 24.1569 18.5 22.5C18.5 20.8431 19.8431 19.5 21.5 19.5C23.1569 19.5 24.5 20.8431 24.5 22.5ZM26.5 22.5C26.5 25.2614 24.2614 27.5 21.5 27.5C18.7386 27.5 16.5 25.2614 16.5 22.5C16.5 19.7386 18.7386 17.5 21.5 17.5C24.2614 17.5 26.5 19.7386 26.5 22.5Z" fill="#3C9EA5"/>
</svg>
