<svg width="56" height="54" viewBox="0 0 56 54" fill="none" xmlns="http://www.w3.org/2000/svg">
<path d="M27.625 1C9.12498 13.5 8.12501 38.5 27.625 53M27.625 1V53M27.625 1C46.125 13.5 47.125 38.5 27.625 53M27.625 1C19.1349 0.999987 12.6753 3.97419 8.24612 8.5M27.625 1C36.1151 1.00001 42.5747 3.97421 47.0039 8.5M27.625 53C18.7292 53 12.0625 49.7347 7.62506 44.8406M27.625 53C36.5208 53 43.1875 49.7347 47.625 44.8406M8.24612 8.5C22.1251 17 33.1251 17 47.0039 8.5M8.24612 8.5C3.41536 13.4362 0.999985 20.2181 0.999997 27M47.0039 8.5C51.8346 13.4362 54.25 20.2181 54.25 27M7.62506 44.8406C22.1251 36 33.1251 36 47.625 44.8406M7.62506 44.8406C3.20837 39.9695 1.00001 33.4847 0.999997 27M47.625 44.8406C52.0417 39.9695 54.25 33.4847 54.25 27M54.25 27H0.999997" stroke="#3C9EA5" stroke-width="2"/>
</svg>
